<svg width="2304" height="567" viewBox="0 0 2304 567" fill="none" xmlns="http://www.w3.org/2000/svg">
<g clip-path="url(#clip0_1261_84)">
<path d="M275.3 0H0V480.87C0 527.97 38.18 566.15 85.28 566.15V85.29H282.53C294.11 85.29 303.5 94.68 303.5 106.26V129.67H388.77V114.78C388.77 114.66 388.77 113.49 388.77 113.49C388.77 50.91 337.87 0 275.31 0L275.3 0Z" fill="#10CFC9"/>
<path d="M303.51 245.27V295.53H85.2798V373.6H162.65C163.08 373.6 163.5 373.56 163.91 373.48H310.82C353.87 373.48 388.77 338.58 388.77 295.53V245.27H303.51Z" fill="url(#paint0_linear_1261_84)"/>
<path d="M651.08 144.699H309.73C257.41 144.699 215 182.799 215 229.789L451.67 229.879V459.989C451.67 471.509 442.33 480.849 430.81 480.849H293.75C293.75 480.849 293.73 480.849 293.72 480.849C278.19 480.829 265.56 468.189 265.56 452.649V394.369H180.28V452.649C180.28 515.219 231.17 566.119 293.72 566.139H451.95C498.89 566.139 536.94 528.089 536.94 481.149V229.909L592.61 229.879C626.13 229.879 653.31 205.469 653.31 175.359V146.709C653.31 145.599 652.31 144.699 651.08 144.699Z" fill="url(#paint1_radial_1261_84)"/>
<path d="M905.54 224.5C889.67 272.8 873.19 317.31 856.11 358.04H817.66C828.4 333.41 842.8 296.57 860.87 247.55L869.29 224.5H905.54ZM841.83 124.98L904.81 160.83L900.42 198.88L836.71 162.29L841.83 124.97V124.98ZM858.67 50.71L923.48 85.47L918.72 123.89L854.27 88.04L858.66 50.72L858.67 50.71ZM1150.13 81.08L1146.47 113.28H1055.66L1052.73 139.26H1106.19C1115.71 139.26 1122.72 141.33 1127.24 145.48C1131.75 149.63 1134.01 156.45 1134.01 165.97C1134.01 167.68 1133.77 170.97 1133.28 175.85L1117.07 331.56C1115.85 343.02 1112.73 351.07 1107.73 355.71C1102.72 360.34 1094.97 362.29 1084.48 361.56C1073.25 360.58 1061.78 358.51 1050.06 355.34L1052.99 325.34C1061.53 327.78 1069.71 329.61 1077.52 330.83C1078.49 331.07 1079.59 331.19 1080.81 331.19C1082.03 331.19 1082.82 330.77 1083.19 329.91C1083.56 329.06 1083.86 327.17 1084.1 324.24L1087.5 289.64H1036.97L1030.01 357.33H995.59L1002.55 289.64H951.65L943.59 362.22H910.27L931.51 175.85C932.98 163.41 936.33 154.21 941.58 148.23C946.82 142.25 954.82 139.27 965.56 139.27H1017.92L1020.85 113.29H931.51L935.17 81.09H1024.14L1028.09 41.75H1062.88L1058.93 81.09H1150.1L1150.13 81.08ZM1008.8 229.26H958.64L954.98 261.82H1005.51L1008.81 229.26H1008.8ZM1015.02 170.35H965.59L961.93 201.45H1011.73L1015.02 170.35ZM1093.01 229.26H1043.58L1039.92 261.82H1090.08L1093.01 229.26ZM1095.94 201.45L1098.87 170.35H1049.81L1046.52 201.45H1095.95H1095.94ZM1112.05 44.13L1124.5 74.5H1091.18L1079.83 44.13H1112.05Z" fill="white"/>
<path d="M1303.35 225.96C1296.52 247.43 1288.46 270.48 1279.18 295.11C1270.63 317.79 1259.76 344.4 1251.95 362.2H1213.5C1232.54 320.74 1252.32 271.08 1267.46 225.96H1303.34H1303.35ZM1236.35 125.35L1305.92 160.47L1301.52 198.15L1231.22 161.93L1236.35 125.34V125.35ZM1255.02 49.25L1323.86 84.74L1319.1 122.42L1250.63 86.2L1255.02 49.25ZM1342.53 73.76H1526.34L1522.31 107.79H1447.61L1423.08 313.86H1523.41L1519.38 347.89H1296.75L1300.78 313.86H1385.73L1409.9 107.79H1338.5L1342.53 73.76Z" fill="white"/>
<path d="M1660.76 204.74H1696.64L1687.85 223.4H1729.96C1739.48 223.4 1746.81 225.29 1751.93 229.07C1757.05 232.85 1759.62 238.03 1759.62 244.62C1759.62 249.99 1757.79 256.21 1754.13 263.28C1744.12 281.33 1730.57 297.07 1713.49 310.48C1729.11 319.02 1741.8 326.21 1751.57 332.07L1726.67 355.12C1718.86 350 1712.14 345.85 1706.53 342.68L1685.29 330.24C1661.61 343.65 1637.2 352.68 1609.86 360.97L1589.72 335.73C1613.89 328.41 1634.27 321.95 1653.07 312.68L1639.52 305.36C1634.63 303.41 1630.73 301.58 1627.81 299.87C1619.75 296.21 1615.73 291.58 1615.73 285.97C1615.73 281.82 1617.68 277.31 1621.59 272.43C1627.69 264.14 1631.96 258.04 1634.41 254.14H1603.28L1606.58 223.41H1651.98L1660.77 204.75L1660.76 204.74ZM1722.18 41.7405L1713.85 107.06H1772.07L1768.04 136.7H1714.22C1723.74 142.07 1737.04 150.97 1754.13 163.41L1763.65 169.99L1743.88 192.31C1730.21 179.39 1717.88 168.65 1706.9 160.11L1702.5 195.23H1668.82L1672.85 164.13C1655.27 181.69 1635.74 196.57 1614.26 208.77L1593.39 186.45C1621.71 171.33 1646.12 154.74 1666.62 136.69H1611.33L1614.99 107.05H1680.17L1688.5 41.7305H1722.19L1722.18 41.7405ZM1673.21 95.3905H1639.16L1622.68 54.4105H1654.9L1673.21 95.3905ZM1670.64 254.14C1665.02 263.65 1659.04 272.68 1652.7 281.21L1666.62 287.43L1682.36 294.75C1695.3 285.24 1706.16 274.63 1714.95 262.92C1716.9 260.24 1717.88 258.29 1717.88 257.07C1717.88 255.12 1714.82 254.14 1708.73 254.14H1670.65H1670.64ZM1744.97 55.5105H1777.93L1757.43 95.3905H1724.47L1744.97 55.5105ZM1899.12 125.35C1892.04 174.62 1876.66 221.46 1852.98 265.85C1867.38 295.37 1885.25 323.19 1909.66 353.43L1872.68 362.21C1859.25 342.94 1847.37 322.92 1833.94 298.04C1817.09 323.41 1800.75 343.91 1780.98 362.21L1744.96 350.36C1773.52 324.99 1797.69 295.73 1817.46 262.55C1806.96 238.65 1798.29 215.23 1791.46 192.3L1781.94 214.26H1747.89C1762.77 179.63 1774.25 151.21 1782.31 129.01C1795.73 90.9605 1805.98 61.3705 1810.87 45.0205H1846.39C1842.97 56.2405 1836.87 73.6405 1830.28 92.4205H1924.38L1920.35 125.35H1899.11H1899.12ZM1810.88 145.11C1818.69 177.31 1826.99 204.51 1835.78 226.7C1849.69 195.97 1859.95 162.19 1866.54 125.35H1818.57L1810.88 145.11Z" fill="white"/>
<path d="M2091.02 214.62L2087.36 245.35H2050.74L2043.78 305.72C2043.78 308.89 2045 310.48 2047.44 310.48C2049.64 310.48 2054.15 308.78 2060.99 305.36L2074.54 297.68L2070.15 333.9C2057.45 339.99 2045 344.75 2032.8 348.17C2030.36 348.9 2028.04 349.27 2025.84 349.27C2020.72 349.27 2016.74 347.62 2013.94 344.33C2011.13 341.04 2009.73 336.46 2009.73 330.61C2009.73 328.17 2009.85 326.22 2010.09 324.75L2019.61 245.36H1987.75L1991.41 214.63H2023.27L2028.4 173.28H1998.74L2002.4 142.91H2089.18L2085.88 173.28H2059.52L2054.39 214.63H2091.01L2091.02 214.62ZM2102.74 78.1505L2096.88 109.98H2018.16C2010.1 109.98 2006.08 107.05 2006.08 101.2C2006.08 99.0105 2006.69 96.3205 2007.91 93.1505L2025.55 43.7805H2059.24L2049.29 78.1405H2102.75L2102.74 78.1505ZM2302.66 323.29L2292.78 356.95H2203.44C2185.37 356.95 2169.26 353.53 2155.11 346.7C2144.12 341.82 2133.99 334.5 2124.72 324.75C2119.1 336.21 2108.89 350.5 2099.13 362.21L2063.98 352.69C2076.18 340.01 2088.16 324.69 2094.88 312.12C2101.59 299.56 2106.17 286.57 2108.61 273.15L2119.96 176.56H2095.43L2099.82 144H2132.77C2139.36 144 2144.42 145.95 2147.97 149.85C2151.51 153.75 2153.28 159.36 2153.28 166.68C2153.28 169.85 2153.15 172.29 2152.92 174L2140.1 277.54L2136.81 291.44C2144.37 300.96 2153.29 308.15 2163.54 313.03C2176.72 319.86 2192.95 323.27 2212.24 323.27H2302.68L2302.66 323.29ZM2142.65 55.4705L2159.86 121.33H2125.81L2110.43 55.4705H2142.65ZM2229.8 171.08L2234.92 129.74H2266.04L2260.91 171.08H2298.99L2294.96 201.45H2257.25L2253.59 233.65H2302.65L2299.36 264.38H2249.93L2243.71 315.6H2212.59L2218.81 264.38H2159.13L2162.79 233.65H2222.47L2226.13 201.45H2187.32C2180.23 201.45 2174.74 199.99 2170.84 197.06C2166.93 194.13 2164.98 190.11 2164.98 184.98C2164.98 180.59 2166.56 175.47 2169.74 169.61C2177.55 155.95 2186.58 136.68 2196.84 111.8H2169.01L2172.67 81.0705H2209.29C2213.68 69.3605 2219.65 52.7105 2223.31 41.7305H2258.46L2242.97 81.0705H2303.47L2299.08 111.8H2230.52C2222.7 131.07 2214.04 150.83 2204.52 171.07H2229.79L2229.8 171.08Z" fill="white"/>
<path d="M1173.98 494.32C1179.38 494.06 1184.97 492.37 1188.61 489.81C1189.55 489.14 1190.39 488.51 1191.12 487.9C1191.85 487.3 1192.49 486.8 1193.05 486.42C1193.61 486.04 1194.18 485.85 1194.74 485.85C1195.26 485.85 1195.69 485.95 1196.01 486.15C1196.33 486.35 1196.59 486.56 1196.8 486.76L1202.67 494.41C1198.88 498.76 1194.43 502.1 1189.31 504.41C1184.19 506.73 1178.31 507.89 1171.66 507.89C1166.26 507.89 1161.47 506.93 1157.28 505.02C1150.08 501.74 1142.43 494.66 1139.93 486.98C1138.42 482.34 1137.66 477.29 1137.66 471.81C1137.66 466.78 1138.2 462.01 1139.29 457.52C1140.38 453.03 1141.93 448.88 1143.95 445.07C1145.96 441.26 1148.37 437.84 1151.17 434.82C1153.97 431.8 1157.09 429.22 1160.54 427.08C1163.98 424.95 1167.69 423.31 1171.66 422.19C1175.63 421.06 1179.77 420.5 1184.08 420.5C1187.26 420.5 1190.16 420.79 1192.78 421.38C1195.4 421.97 1197.77 422.78 1199.88 423.83C1202 424.88 1203.91 426.14 1205.62 427.61C1207.33 429.08 1208.87 430.72 1210.24 432.54L1204.8 439.07C1204.4 439.55 1203.92 439.98 1203.38 440.34C1202.84 440.7 1202.16 440.88 1201.36 440.88C1200.47 440.88 1199.63 440.52 1198.82 439.79C1198.01 439.07 1197 438.27 1195.77 437.4C1194.54 436.53 1192.95 435.74 1191 435.01C1189.05 434.28 1186.48 433.92 1183.29 433.92C1179.1 433.92 1175.2 434.78 1171.59 436.49C1167.98 438.2 1164.85 440.65 1162.19 443.83C1159.53 447.01 1157.45 450.85 1155.93 455.35C1154.42 459.84 1152.94 465.07 1152.94 470.67C1152.94 479.62 1155.26 488.62 1163.82 492.69C1166.65 494.03 1170.26 494.53 1173.97 494.34" fill="#1279AF"/>
<path d="M1321.06 420.48L1310.3 507.88H1294.46L1299.24 469.5H1262.43L1257.72 507.88H1241.94L1252.7 420.48H1268.48L1263.82 458.37H1300.57L1305.28 420.48H1321.06Z" fill="#1279AF"/>
<path d="M1431.87 507.88H1419.72C1418.35 507.88 1417.29 507.55 1416.54 506.88C1415.79 506.22 1415.26 505.36 1414.94 504.31L1411.31 486.06H1378.73L1370.63 504.31C1370.18 505.24 1369.47 506.06 1368.48 506.79C1367.5 507.52 1366.35 507.88 1365.07 507.88H1352.74L1394.99 420.48H1411.01L1431.86 507.88H1431.87ZM1409.08 475L1403.16 445.08C1402.92 443.71 1402.64 442.12 1402.31 440.3C1401.99 438.49 1401.67 436.51 1401.34 434.38C1400.53 436.52 1399.75 438.49 1398.98 440.3C1398.22 442.12 1397.53 443.73 1396.93 445.14L1383.69 475H1409.08Z" fill="#1279AF"/>
<path d="M1479.32 507.88H1463.55L1474.19 420.48H1489.96L1479.32 507.88Z" fill="#1279AF"/>
<path d="M1600.77 420.481L1590.01 507.881H1581.91C1580.7 507.881 1579.7 507.671 1578.92 507.241C1578.13 506.821 1577.4 506.121 1576.71 505.151L1542.86 445.431C1542.78 446.441 1542.7 447.401 1542.62 448.301C1542.54 449.211 1542.46 450.061 1542.37 450.871L1535.48 507.871H1521.64L1532.4 420.471H1540.62C1541.3 420.471 1541.88 420.501 1542.34 420.561C1542.8 420.621 1543.22 420.741 1543.58 420.921C1543.94 421.101 1544.26 421.351 1544.54 421.671C1544.82 421.991 1545.13 422.441 1545.45 423.001L1579.48 482.661C1579.56 481.451 1579.65 480.291 1579.75 479.181C1579.85 478.071 1579.96 477.051 1580.08 476.131L1586.91 420.461H1600.75L1600.77 420.481Z" fill="#1279AF"/>
<path d="M1711.57 507.88H1699.42C1698.05 507.88 1696.99 507.55 1696.25 506.88C1695.5 506.22 1694.97 505.36 1694.65 504.31L1691.02 486.06H1658.44L1650.34 504.31C1649.89 505.24 1649.18 506.06 1648.19 506.79C1647.21 507.52 1646.06 507.88 1644.78 507.88H1632.45L1674.7 420.48H1690.72L1711.57 507.88ZM1688.79 475L1682.87 445.08C1682.63 443.71 1682.35 442.12 1682.02 440.3C1681.7 438.49 1681.38 436.51 1681.05 434.38C1680.24 436.52 1679.46 438.49 1678.69 440.3C1677.92 442.12 1677.24 443.73 1676.64 445.14L1663.4 475H1688.79Z" fill="#1279AF"/>
<path d="M1782.06 420.48C1786.9 420.48 1791.04 420.95 1794.48 421.9C1797.93 422.85 1800.74 424.19 1802.94 425.92C1805.13 427.65 1806.76 429.75 1807.81 432.21C1808.86 434.67 1809.38 437.41 1809.38 440.43C1809.38 442.93 1809.05 445.32 1808.38 447.59C1807.71 449.87 1806.68 451.97 1805.27 453.91C1803.86 455.84 1802.07 457.58 1799.89 459.11C1797.71 460.64 1795.11 461.91 1792.09 462.92C1797.05 464.17 1800.73 466.19 1803.15 468.99C1805.57 471.79 1806.78 475.35 1806.78 479.66C1806.78 483.69 1806.03 487.43 1804.55 490.87C1803.06 494.32 1800.9 497.3 1798.08 499.82C1795.26 502.34 1791.83 504.31 1787.78 505.74C1783.73 507.17 1779.15 507.89 1774.03 507.89H1743.26L1754.02 420.49H1782.06V420.48ZM1775.29 495.67C1778.07 495.67 1780.48 495.29 1782.51 494.52C1784.54 493.76 1786.21 492.68 1787.5 491.29C1788.79 489.9 1789.75 488.23 1790.37 486.28C1791 484.33 1791.31 482.18 1791.31 479.84C1791.31 476.66 1790.3 474.12 1788.29 472.22C1786.27 470.33 1782.97 469.38 1778.38 469.38H1763.63L1760.43 495.67H1775.3H1775.29ZM1768.16 432.57L1764.96 458.56H1776.57C1781.97 458.56 1786.13 457.29 1789.05 454.75C1791.97 452.21 1793.43 448.32 1793.43 443.08C1793.43 439.41 1792.39 436.74 1790.32 435.07C1788.25 433.4 1785.01 432.56 1780.62 432.56H1768.17L1768.16 432.57Z" fill="#1279AF"/>
<path d="M1890.09 494.88L1888.57 507.88H1841.07L1851.82 420.48H1867.48L1858.29 494.88H1890.09Z" fill="#1279AF"/>
<path d="M1946.79 432.99L1943.71 457.83H1971.33L1969.82 469.86H1942.2L1939.06 495.37H1974.36L1972.78 507.88H1921.77L1932.53 420.48H1983.48L1981.91 432.99H1946.79Z" fill="#1279AF"/>
</g>
<defs>
<linearGradient id="paint0_linear_1261_84" x1="388" y1="309.43" x2="-24.9602" y2="309.43" gradientUnits="userSpaceOnUse">
<stop stop-color="#19D3C5"/>
<stop offset="0.68" stop-color="#0080BB"/>
</linearGradient>
<radialGradient id="paint1_radial_1261_84" cx="0" cy="0" r="1" gradientUnits="userSpaceOnUse" gradientTransform="translate(221.946 391.844) rotate(0.34) scale(216.86 45.5406)">
<stop offset="0.2" stop-color="white" stop-opacity="0"/>
<stop offset="0.74" stop-color="#4FA7D0" stop-opacity="0.69"/>
<stop offset="1" stop-color="#0080BB"/>
</radialGradient>
<clipPath id="clip0_1261_84">
<rect width="2303.48" height="566.15" fill="white"/>
</clipPath>
</defs>
</svg>
